<svg xmlns="http://www.w3.org/2000/svg" width="1248" height="1132" viewBox="0 0 1248 1132">
<defs>
<marker id="arrow" markerWidth="10" markerHeight="10" refX="8" refY="3" orient="auto" markerUnits="strokeWidth">
<path d="M0,0 L0,6 L9,3 z" fill="#475569"/>
</marker>
<filter id="softShadow" x="-20%" y="-20%" width="140%" height="140%">
<feDropShadow dx="0" dy="8" stdDeviation="8" flood-color="#0F172A" flood-opacity="0.10"/>
</filter>
</defs>
<rect width="100%" height="100%" fill="#FBFCFE"/>
<text x="56" y="42" font-size="30" font-weight="750" fill="#111827">Pintos Threads 구현 지도</text>
<text x="56" y="80" font-size="16" font-weight="400" fill="#64748B">tests -&gt; expected behavior -&gt; code surface -&gt; blanks to fill</text>
<text x="56" y="104" font-size="16" font-weight="750" fill="#334155">Tests</text>
<line x1="56" y1="118" x2="316" y2="118" stroke="#CBD5E1" stroke-width="1.2"/>
<rect x="56" y="142" width="260" height="152" rx="10" fill="white" filter="url(#softShadow)"/>
<rect x="56" y="142" width="260" height="152" rx="10" fill="#EAF3FF" opacity="0.72"/>
<rect x="56" y="142" width="6" height="152" rx="3" fill="#2F80ED"/>
<text x="76" y="172" font-size="16" font-weight="750" fill="#111827">alarm-*</text>
<text x="76" y="198" font-size="13" font-weight="400" fill="#475569">alarm-single, multiple,</text>
<text x="76" y="216" font-size="13" font-weight="400" fill="#475569">simultaneous, priority,</text>
<text x="76" y="234" font-size="13" font-weight="400" fill="#475569">zero, negative</text>
<rect x="76" y="260" width="53" height="20" rx="10" fill="white" opacity="0.72"/>
<text x="85" y="274" font-size="11" fill="#475569">timer</text>
<rect x="56" y="312" width="260" height="134" rx="10" fill="white" filter="url(#softShadow)"/>
<rect x="56" y="312" width="260" height="134" rx="10" fill="#EAF7EF" opacity="0.72"/>
<rect x="56" y="312" width="6" height="134" rx="3" fill="#219653"/>
<text x="76" y="342" font-size="16" font-weight="750" fill="#111827">priority-*</text>
<text x="76" y="368" font-size="13" font-weight="400" fill="#475569">preempt, change, fifo, sema,</text>
<text x="76" y="386" font-size="13" font-weight="400" fill="#475569">condvar</text>
<rect x="76" y="412" width="81" height="20" rx="10" fill="white" opacity="0.72"/>
<text x="85" y="426" font-size="11" fill="#475569">scheduler</text>
<rect x="56" y="464" width="260" height="134" rx="10" fill="white" filter="url(#softShadow)"/>
<rect x="56" y="464" width="260" height="134" rx="10" fill="#FFF6DC" opacity="0.72"/>
<rect x="56" y="464" width="6" height="134" rx="3" fill="#B7791F"/>
<text x="76" y="494" font-size="16" font-weight="750" fill="#111827">donate-*</text>
<text x="76" y="520" font-size="13" font-weight="400" fill="#475569">one, multiple, nest, sema,</text>
<text x="76" y="538" font-size="13" font-weight="400" fill="#475569">lower, chain</text>
<rect x="76" y="564" width="53" height="20" rx="10" fill="white" opacity="0.72"/>
<text x="85" y="578" font-size="11" fill="#475569">locks</text>
<rect x="56" y="616" width="260" height="134" rx="10" fill="white" filter="url(#softShadow)"/>
<rect x="56" y="616" width="260" height="134" rx="10" fill="#F1ECFF" opacity="0.72"/>
<rect x="56" y="616" width="6" height="134" rx="3" fill="#7B61FF"/>
<text x="76" y="646" font-size="16" font-weight="750" fill="#111827">mlfqs-*</text>
<text x="76" y="672" font-size="13" font-weight="400" fill="#475569">load, recent_cpu, fair,</text>
<text x="76" y="690" font-size="13" font-weight="400" fill="#475569">nice, block</text>
<rect x="76" y="716" width="74" height="20" rx="10" fill="white" opacity="0.72"/>
<text x="85" y="730" font-size="11" fill="#475569">advanced</text>
<rect x="56" y="768" width="260" height="134" rx="10" fill="white" filter="url(#softShadow)"/>
<rect x="56" y="768" width="260" height="134" rx="10" fill="#F4F6F8" opacity="0.72"/>
<rect x="56" y="768" width="6" height="134" rx="3" fill="#64748B"/>
<text x="76" y="798" font-size="16" font-weight="750" fill="#111827">run order</text>
<text x="76" y="824" font-size="13" font-weight="400" fill="#475569">alarm -&gt; priority -&gt;</text>
<text x="76" y="842" font-size="13" font-weight="400" fill="#475569">donation -&gt; mlfqs</text>
<rect x="76" y="868" width="46" height="20" rx="10" fill="white" opacity="0.72"/>
<text x="85" y="882" font-size="11" fill="#475569">plan</text>
<text x="348" y="104" font-size="16" font-weight="750" fill="#334155">Expected Behavior</text>
<line x1="348" y1="118" x2="608" y2="118" stroke="#CBD5E1" stroke-width="1.2"/>
<rect x="348" y="142" width="260" height="144" rx="10" fill="white" filter="url(#softShadow)"/>
<rect x="348" y="142" width="260" height="144" rx="10" fill="#EAF3FF" opacity="0.72"/>
<rect x="348" y="142" width="6" height="144" rx="3" fill="#2F80ED"/>
<text x="368" y="172" font-size="16" font-weight="750" fill="#111827">Sleep, not spin</text>
<text x="368" y="198" font-size="13" font-weight="400" fill="#475569">timer_sleep blocks current</text>
<text x="368" y="216" font-size="13" font-weight="400" fill="#475569">thread until wake tick</text>
<text x="368" y="256" font-size="12" font-weight="650" fill="#64748B">fill</text>
<line x1="404" y1="254" x2="586" y2="254" stroke="#334155" stroke-width="1.4" stroke-dasharray="5 5"/>
<text x="410" y="245" font-size="12" fill="#94A3B8">wake condition</text>
<rect x="348" y="304" width="260" height="162" rx="10" fill="white" filter="url(#softShadow)"/>
<rect x="348" y="304" width="260" height="162" rx="10" fill="#EAF7EF" opacity="0.72"/>
<rect x="348" y="304" width="6" height="162" rx="3" fill="#219653"/>
<text x="368" y="334" font-size="16" font-weight="750" fill="#111827">Highest first</text>
<text x="368" y="360" font-size="13" font-weight="400" fill="#475569">ready and waiter lists</text>
<text x="368" y="378" font-size="13" font-weight="400" fill="#475569">choose max effective</text>
<text x="368" y="396" font-size="13" font-weight="400" fill="#475569">priority</text>
<text x="368" y="436" font-size="12" font-weight="650" fill="#64748B">fill</text>
<line x1="404" y1="434" x2="586" y2="434" stroke="#334155" stroke-width="1.4" stroke-dasharray="5 5"/>
<text x="410" y="425" font-size="12" fill="#94A3B8">comparison rule</text>
<rect x="348" y="484" width="260" height="144" rx="10" fill="white" filter="url(#softShadow)"/>
<rect x="348" y="484" width="260" height="144" rx="10" fill="#FFF6DC" opacity="0.72"/>
<rect x="348" y="484" width="6" height="144" rx="3" fill="#B7791F"/>
<text x="368" y="514" font-size="16" font-weight="750" fill="#111827">Priority donation</text>
<text x="368" y="540" font-size="13" font-weight="400" fill="#475569">blocked high-priority thread</text>
<text x="368" y="558" font-size="13" font-weight="400" fill="#475569">boosts lock holder</text>
<text x="368" y="598" font-size="12" font-weight="650" fill="#64748B">fill</text>
<line x1="404" y1="596" x2="586" y2="596" stroke="#334155" stroke-width="1.4" stroke-dasharray="5 5"/>
<text x="410" y="587" font-size="12" fill="#94A3B8">donation path</text>
<rect x="348" y="646" width="260" height="144" rx="10" fill="white" filter="url(#softShadow)"/>
<rect x="348" y="646" width="260" height="144" rx="10" fill="#F1ECFF" opacity="0.72"/>
<rect x="348" y="646" width="6" height="144" rx="3" fill="#7B61FF"/>
<text x="368" y="676" font-size="16" font-weight="750" fill="#111827">Dynamic priority</text>
<text x="368" y="702" font-size="13" font-weight="400" fill="#475569">priority comes from</text>
<text x="368" y="720" font-size="13" font-weight="400" fill="#475569">recent_cpu, nice, load_avg</text>
<text x="368" y="760" font-size="12" font-weight="650" fill="#64748B">fill</text>
<line x1="404" y1="758" x2="586" y2="758" stroke="#334155" stroke-width="1.4" stroke-dasharray="5 5"/>
<text x="410" y="749" font-size="12" fill="#94A3B8">fixed-point formula</text>
<rect x="348" y="808" width="260" height="162" rx="10" fill="white" filter="url(#softShadow)"/>
<rect x="348" y="808" width="260" height="162" rx="10" fill="#F4F6F8" opacity="0.72"/>
<rect x="348" y="808" width="6" height="162" rx="3" fill="#64748B"/>
<text x="368" y="838" font-size="16" font-weight="750" fill="#111827">Yield points</text>
<text x="368" y="864" font-size="13" font-weight="400" fill="#475569">new or unblocked higher-</text>
<text x="368" y="882" font-size="13" font-weight="400" fill="#475569">priority thread should run</text>
<text x="368" y="900" font-size="13" font-weight="400" fill="#475569">soon</text>
<text x="368" y="940" font-size="12" font-weight="650" fill="#64748B">fill</text>
<line x1="404" y1="938" x2="586" y2="938" stroke="#334155" stroke-width="1.4" stroke-dasharray="5 5"/>
<text x="410" y="929" font-size="12" fill="#94A3B8">yield trigger</text>
<text x="640" y="104" font-size="16" font-weight="750" fill="#334155">Code Surface</text>
<line x1="640" y1="118" x2="900" y2="118" stroke="#CBD5E1" stroke-width="1.2"/>
<rect x="640" y="142" width="260" height="162" rx="10" fill="white" filter="url(#softShadow)"/>
<rect x="640" y="142" width="260" height="162" rx="10" fill="#EAF3FF" opacity="0.72"/>
<rect x="640" y="142" width="6" height="162" rx="3" fill="#2F80ED"/>
<text x="660" y="172" font-size="16" font-weight="750" fill="#111827">timer.c</text>
<text x="660" y="198" font-size="13" font-weight="400" fill="#475569">timer_sleep(),</text>
<text x="660" y="216" font-size="13" font-weight="400" fill="#475569">timer_interrupt(), global</text>
<text x="660" y="234" font-size="13" font-weight="400" fill="#475569">sleep queue</text>
<text x="660" y="274" font-size="12" font-weight="650" fill="#64748B">fill</text>
<line x1="696" y1="272" x2="878" y2="272" stroke="#334155" stroke-width="1.4" stroke-dasharray="5 5"/>
<text x="702" y="263" font-size="12" fill="#94A3B8">sleep_list</text>
<rect x="640" y="322" width="260" height="180" rx="10" fill="white" filter="url(#softShadow)"/>
<rect x="640" y="322" width="260" height="180" rx="10" fill="#EAF7EF" opacity="0.72"/>
<rect x="640" y="322" width="6" height="180" rx="3" fill="#219653"/>
<text x="660" y="352" font-size="16" font-weight="750" fill="#111827">thread.c</text>
<text x="660" y="378" font-size="13" font-weight="400" fill="#475569">ready_list,</text>
<text x="660" y="396" font-size="13" font-weight="400" fill="#475569">thread_unblock(),</text>
<text x="660" y="414" font-size="13" font-weight="400" fill="#475569">thread_yield(),</text>
<text x="660" y="432" font-size="13" font-weight="400" fill="#475569">next_thread_to_run()</text>
<text x="660" y="472" font-size="12" font-weight="650" fill="#64748B">fill</text>
<line x1="696" y1="470" x2="878" y2="470" stroke="#334155" stroke-width="1.4" stroke-dasharray="5 5"/>
<text x="702" y="461" font-size="12" fill="#94A3B8">priority_less()</text>
<rect x="640" y="520" width="260" height="162" rx="10" fill="white" filter="url(#softShadow)"/>
<rect x="640" y="520" width="260" height="162" rx="10" fill="#FFF6DC" opacity="0.72"/>
<rect x="640" y="520" width="6" height="162" rx="3" fill="#B7791F"/>
<text x="660" y="550" font-size="16" font-weight="750" fill="#111827">synch.c</text>
<text x="660" y="576" font-size="13" font-weight="400" fill="#475569">sema_down/up,</text>
<text x="660" y="594" font-size="13" font-weight="400" fill="#475569">lock_acquire/release,</text>
<text x="660" y="612" font-size="13" font-weight="400" fill="#475569">cond_wait/signal</text>
<text x="660" y="652" font-size="12" font-weight="650" fill="#64748B">fill</text>
<line x1="696" y1="650" x2="878" y2="650" stroke="#334155" stroke-width="1.4" stroke-dasharray="5 5"/>
<text x="702" y="641" font-size="12" fill="#94A3B8">waiter ordering</text>
<rect x="640" y="700" width="260" height="144" rx="10" fill="white" filter="url(#softShadow)"/>
<rect x="640" y="700" width="260" height="144" rx="10" fill="#F1ECFF" opacity="0.72"/>
<rect x="640" y="700" width="6" height="144" rx="3" fill="#7B61FF"/>
<text x="660" y="730" font-size="16" font-weight="750" fill="#111827">thread.h</text>
<text x="660" y="756" font-size="13" font-weight="400" fill="#475569">struct thread fields for</text>
<text x="660" y="774" font-size="13" font-weight="400" fill="#475569">sleep, donation, mlfqs</text>
<text x="660" y="814" font-size="12" font-weight="650" fill="#64748B">fill</text>
<line x1="696" y1="812" x2="878" y2="812" stroke="#334155" stroke-width="1.4" stroke-dasharray="5 5"/>
<text x="702" y="803" font-size="12" fill="#94A3B8">new fields</text>
<rect x="640" y="862" width="260" height="144" rx="10" fill="white" filter="url(#softShadow)"/>
<rect x="640" y="862" width="260" height="144" rx="10" fill="#F4F6F8" opacity="0.72"/>
<rect x="640" y="862" width="6" height="144" rx="3" fill="#64748B"/>
<text x="660" y="892" font-size="16" font-weight="750" fill="#111827">interrupt.c</text>
<text x="660" y="918" font-size="13" font-weight="400" fill="#475569">intr_yield_on_return for</text>
<text x="660" y="936" font-size="13" font-weight="400" fill="#475569">interrupt-safe preemption</text>
<text x="660" y="976" font-size="12" font-weight="650" fill="#64748B">fill</text>
<line x1="696" y1="974" x2="878" y2="974" stroke="#334155" stroke-width="1.4" stroke-dasharray="5 5"/>
<text x="702" y="965" font-size="12" fill="#94A3B8">interrupt case</text>
<text x="932" y="104" font-size="16" font-weight="750" fill="#334155">Blanks To Fill</text>
<line x1="932" y1="118" x2="1192" y2="118" stroke="#CBD5E1" stroke-width="1.2"/>
<rect x="932" y="142" width="260" height="144" rx="10" fill="white" filter="url(#softShadow)"/>
<rect x="932" y="142" width="260" height="144" rx="10" fill="#EAF3FF" opacity="0.72"/>
<rect x="932" y="142" width="6" height="144" rx="3" fill="#2F80ED"/>
<text x="952" y="172" font-size="16" font-weight="750" fill="#111827">Alarm fields</text>
<text x="952" y="198" font-size="13" font-weight="400" fill="#475569">wake tick + separate list</text>
<text x="952" y="216" font-size="13" font-weight="400" fill="#475569">element for sleepers</text>
<text x="952" y="256" font-size="12" font-weight="650" fill="#64748B">fill</text>
<line x1="988" y1="254" x2="1170" y2="254" stroke="#334155" stroke-width="1.4" stroke-dasharray="5 5"/>
<text x="994" y="245" font-size="12" fill="#94A3B8">int64_t ________, list_elem ________</text>
<rect x="932" y="304" width="260" height="162" rx="10" fill="white" filter="url(#softShadow)"/>
<rect x="932" y="304" width="260" height="162" rx="10" fill="#EAF7EF" opacity="0.72"/>
<rect x="932" y="304" width="6" height="162" rx="3" fill="#219653"/>
<text x="952" y="334" font-size="16" font-weight="750" fill="#111827">Priority helpers</text>
<text x="952" y="360" font-size="13" font-weight="400" fill="#475569">effective priority</text>
<text x="952" y="378" font-size="13" font-weight="400" fill="#475569">comparator and ready-list</text>
<text x="952" y="396" font-size="13" font-weight="400" fill="#475569">insertion</text>
<text x="952" y="436" font-size="12" font-weight="650" fill="#64748B">fill</text>
<line x1="988" y1="434" x2="1170" y2="434" stroke="#334155" stroke-width="1.4" stroke-dasharray="5 5"/>
<text x="994" y="425" font-size="12" fill="#94A3B8">_________less(), maybe_yield()</text>
<rect x="932" y="484" width="260" height="162" rx="10" fill="white" filter="url(#softShadow)"/>
<rect x="932" y="484" width="260" height="162" rx="10" fill="#FFF6DC" opacity="0.72"/>
<rect x="932" y="484" width="6" height="162" rx="3" fill="#B7791F"/>
<text x="952" y="514" font-size="16" font-weight="750" fill="#111827">Donation fields</text>
<text x="952" y="540" font-size="13" font-weight="400" fill="#475569">base priority, donor list,</text>
<text x="952" y="558" font-size="13" font-weight="400" fill="#475569">waiting lock, held lock</text>
<text x="952" y="576" font-size="13" font-weight="400" fill="#475569">relation</text>
<text x="952" y="616" font-size="12" font-weight="650" fill="#64748B">fill</text>
<line x1="988" y1="614" x2="1170" y2="614" stroke="#334155" stroke-width="1.4" stroke-dasharray="5 5"/>
<text x="994" y="605" font-size="12" fill="#94A3B8">base ________, waiting ________</text>
<rect x="932" y="664" width="260" height="144" rx="10" fill="white" filter="url(#softShadow)"/>
<rect x="932" y="664" width="260" height="144" rx="10" fill="#F1ECFF" opacity="0.72"/>
<rect x="932" y="664" width="6" height="144" rx="3" fill="#7B61FF"/>
<text x="952" y="694" font-size="16" font-weight="750" fill="#111827">MLFQS fields</text>
<text x="952" y="720" font-size="13" font-weight="400" fill="#475569">nice, recent_cpu, load_avg</text>
<text x="952" y="738" font-size="13" font-weight="400" fill="#475569">and recalculation cadence</text>
<text x="952" y="778" font-size="12" font-weight="650" fill="#64748B">fill</text>
<line x1="988" y1="776" x2="1170" y2="776" stroke="#334155" stroke-width="1.4" stroke-dasharray="5 5"/>
<text x="994" y="767" font-size="12" fill="#94A3B8">nice, recent_cpu, load_avg</text>
<rect x="932" y="826" width="260" height="144" rx="10" fill="white" filter="url(#softShadow)"/>
<rect x="932" y="826" width="260" height="144" rx="10" fill="#F4F6F8" opacity="0.72"/>
<rect x="932" y="826" width="6" height="144" rx="3" fill="#64748B"/>
<text x="952" y="856" font-size="16" font-weight="750" fill="#111827">Test checkpoint</text>
<text x="952" y="882" font-size="13" font-weight="400" fill="#475569">pass one group before moving</text>
<text x="952" y="900" font-size="13" font-weight="400" fill="#475569">to the next group</text>
<text x="952" y="940" font-size="12" font-weight="650" fill="#64748B">fill</text>
<line x1="988" y1="938" x2="1170" y2="938" stroke="#334155" stroke-width="1.4" stroke-dasharray="5 5"/>
<text x="994" y="929" font-size="12" fill="#94A3B8">make check TESTS=threads/________</text>
<path d="M324,218.0 C348,218.0 316,214.0 340,214.0" fill="none" stroke="#475569" stroke-width="1.8" marker-end="url(#arrow)"/>
<rect x="296.0" y="193.0" width="72" height="22" rx="11" fill="#FBFCFE" stroke="#CBD5E1"/>
<text x="332.0" y="208.0" text-anchor="middle" font-size="11" fill="#475569">requires</text>
<path d="M616,214.0 C640,214.0 608,223.0 632,223.0" fill="none" stroke="#475569" stroke-width="1.8" marker-end="url(#arrow)"/>
<rect x="602.0" y="195.5" width="44" height="22" rx="11" fill="#FBFCFE" stroke="#CBD5E1"/>
<text x="624.0" y="210.5" text-anchor="middle" font-size="11" fill="#475569">edit</text>
<path d="M908,223.0 C932,223.0 900,214.0 924,214.0" fill="none" stroke="#475569" stroke-width="1.8" marker-end="url(#arrow)"/>
<rect x="894.0" y="195.5" width="44" height="22" rx="11" fill="#FBFCFE" stroke="#CBD5E1"/>
<text x="916.0" y="210.5" text-anchor="middle" font-size="11" fill="#475569">fill</text>
<path d="M324,379.0 C348,379.0 316,385.0 340,385.0" fill="none" stroke="#475569" stroke-width="1.8" marker-end="url(#arrow)"/>
<rect x="296.0" y="359.0" width="72" height="22" rx="11" fill="#FBFCFE" stroke="#CBD5E1"/>
<text x="332.0" y="374.0" text-anchor="middle" font-size="11" fill="#475569">requires</text>
<path d="M616,385.0 C640,385.0 608,412.0 632,412.0" fill="none" stroke="#475569" stroke-width="1.8" marker-end="url(#arrow)"/>
<rect x="602.0" y="375.5" width="44" height="22" rx="11" fill="#FBFCFE" stroke="#CBD5E1"/>
<text x="624.0" y="390.5" text-anchor="middle" font-size="11" fill="#475569">edit</text>
<path d="M908,412.0 C932,412.0 900,385.0 924,385.0" fill="none" stroke="#475569" stroke-width="1.8" marker-end="url(#arrow)"/>
<rect x="894.0" y="375.5" width="44" height="22" rx="11" fill="#FBFCFE" stroke="#CBD5E1"/>
<text x="916.0" y="390.5" text-anchor="middle" font-size="11" fill="#475569">fill</text>
<path d="M324,531.0 C348,531.0 316,556.0 340,556.0" fill="none" stroke="#475569" stroke-width="1.8" marker-end="url(#arrow)"/>
<rect x="296.0" y="520.5" width="72" height="22" rx="11" fill="#FBFCFE" stroke="#CBD5E1"/>
<text x="332.0" y="535.5" text-anchor="middle" font-size="11" fill="#475569">requires</text>
<path d="M616,556.0 C640,556.0 608,601.0 632,601.0" fill="none" stroke="#475569" stroke-width="1.8" marker-end="url(#arrow)"/>
<rect x="602.0" y="555.5" width="44" height="22" rx="11" fill="#FBFCFE" stroke="#CBD5E1"/>
<text x="624.0" y="570.5" text-anchor="middle" font-size="11" fill="#475569">edit</text>
<path d="M908,601.0 C932,601.0 900,565.0 924,565.0" fill="none" stroke="#475569" stroke-width="1.8" marker-end="url(#arrow)"/>
<rect x="894.0" y="560.0" width="44" height="22" rx="11" fill="#FBFCFE" stroke="#CBD5E1"/>
<text x="916.0" y="575.0" text-anchor="middle" font-size="11" fill="#475569">fill</text>
<path d="M324,683.0 C348,683.0 316,718.0 340,718.0" fill="none" stroke="#475569" stroke-width="1.8" marker-end="url(#arrow)"/>
<rect x="296.0" y="677.5" width="72" height="22" rx="11" fill="#FBFCFE" stroke="#CBD5E1"/>
<text x="332.0" y="692.5" text-anchor="middle" font-size="11" fill="#475569">requires</text>
<path d="M616,718.0 C640,718.0 608,772.0 632,772.0" fill="none" stroke="#475569" stroke-width="1.8" marker-end="url(#arrow)"/>
<rect x="602.0" y="722.0" width="44" height="22" rx="11" fill="#FBFCFE" stroke="#CBD5E1"/>
<text x="624.0" y="737.0" text-anchor="middle" font-size="11" fill="#475569">edit</text>
<path d="M908,772.0 C932,772.0 900,736.0 924,736.0" fill="none" stroke="#475569" stroke-width="1.8" marker-end="url(#arrow)"/>
<rect x="894.0" y="731.0" width="44" height="22" rx="11" fill="#FBFCFE" stroke="#CBD5E1"/>
<text x="916.0" y="746.0" text-anchor="middle" font-size="11" fill="#475569">fill</text>
<path d="M324,835.0 C348,835.0 316,889.0 340,889.0" fill="none" stroke="#475569" stroke-width="1.8" marker-end="url(#arrow)"/>
<rect x="303.0" y="839.0" width="58" height="22" rx="11" fill="#FBFCFE" stroke="#CBD5E1"/>
<text x="332.0" y="854.0" text-anchor="middle" font-size="11" fill="#475569">guides</text>
<path d="M616,889.0 C640,889.0 608,934.0 632,934.0" fill="none" stroke="#475569" stroke-width="1.8" marker-end="url(#arrow)"/>
<rect x="598.5" y="888.5" width="51" height="22" rx="11" fill="#FBFCFE" stroke="#CBD5E1"/>
<text x="624.0" y="903.5" text-anchor="middle" font-size="11" fill="#475569">check</text>
<path d="M908,934.0 C932,934.0 900,898.0 924,898.0" fill="none" stroke="#475569" stroke-width="1.8" marker-end="url(#arrow)"/>
<rect x="887.0" y="893.0" width="58" height="22" rx="11" fill="#FBFCFE" stroke="#CBD5E1"/>
<text x="916.0" y="908.0" text-anchor="middle" font-size="11" fill="#475569">verify</text>
</svg>